<svg width="303" height="84" viewBox="0 0 303 84" fill="none" xmlns="http://www.w3.org/2000/svg">
<g clip-path="url(#clip0_525_11813)">
<path d="M98.6484 19.0335L102.728 2.88184H109.349L113.531 19.0335H110.743L107.258 5.41769H104.703L101.334 19.0335H98.6484Z" fill="#35393A"/>
<path d="M118.658 12.348H124.799L122.955 5.41769H120.4L118.658 12.348ZM114.229 19.0335L118.411 2.88184H125.032L129.329 19.0335H126.542L125.424 14.8839H117.932L116.886 19.0335H114.215H114.229Z" fill="#35393A"/>
<path d="M134.006 16.4976H138.42C139.509 16.4976 140.322 16.2671 140.859 15.8204C141.397 15.3738 141.673 14.7542 141.673 13.9618C141.673 13.1693 141.397 12.5642 140.859 12.1031C140.322 11.6565 139.509 11.4259 138.42 11.4259H134.006V16.4976ZM131.335 19.0335V2.88184H143.313V5.41769H134.006V8.87566H138.42C140.293 8.87566 141.774 9.35113 142.849 10.3021C143.923 11.253 144.46 12.4777 144.46 13.9474C144.46 15.417 143.923 16.6417 142.849 17.5926C141.774 18.5436 140.293 19.0191 138.42 19.0191H131.32L131.335 19.0335Z" fill="#35393A"/>
<path d="M150.892 6.62786C149.789 7.7373 149.237 9.17812 149.237 10.9647C149.237 12.7514 149.789 14.1922 150.892 15.3016C151.996 16.4111 153.418 16.9586 155.175 16.9586C156.932 16.9586 158.34 16.4111 159.444 15.3016C160.547 14.1922 161.114 12.7514 161.114 10.9647C161.114 9.17812 160.562 7.7373 159.444 6.62786C158.34 5.51843 156.918 4.97092 155.175 4.97092C153.433 4.97092 151.996 5.51843 150.892 6.62786ZM148.932 17.045C147.277 15.4169 146.449 13.3853 146.449 10.9503C146.449 8.51534 147.277 6.48378 148.932 4.85565C150.587 3.22752 152.663 2.40625 155.161 2.40625C157.658 2.40625 159.734 3.22752 161.39 4.85565C163.045 6.48378 163.872 8.51534 163.872 10.9503C163.872 13.3853 163.045 15.4169 161.39 17.045C159.734 18.6731 157.658 19.4944 155.161 19.4944C152.663 19.4944 150.587 18.6731 148.932 17.045Z" fill="#35393A"/>
<path d="M169.127 11.1954H173.541C174.674 11.1954 175.53 10.936 176.14 10.4173C176.736 9.89865 177.04 9.19264 177.04 8.29933C177.04 7.40602 176.736 6.70002 176.14 6.18132C175.545 5.66263 174.674 5.40328 173.541 5.40328H169.127V11.1666V11.1954ZM166.441 19.0335V2.88184H173.541C175.414 2.88184 176.939 3.40053 178.086 4.43793C179.247 5.47532 179.814 6.77206 179.814 8.29933C179.814 9.82661 179.233 11.1233 178.086 12.1607C176.924 13.1981 175.414 13.7168 173.541 13.7168H169.127V19.0191H166.456L166.441 19.0335Z" fill="#35393A"/>
<path d="M184.822 12.348H190.963L189.119 5.41769H186.564L184.822 12.348ZM180.393 19.0335L184.575 2.88184H191.196L195.493 19.0335H192.706L191.588 14.8839H184.096L183.05 19.0335H180.379H180.393Z" fill="#35393A"/>
<path d="M195.176 5.41769V2.88184H208.548V5.41769H203.19V19.0335H200.519V5.41769H195.176Z" fill="#35393A"/>
<path d="M214.15 6.62786C213.046 7.7373 212.495 9.17812 212.495 10.9647C212.495 12.7514 213.046 14.1922 214.15 15.3016C215.253 16.4111 216.676 16.9586 218.433 16.9586C220.19 16.9586 221.598 16.4111 222.702 15.3016C223.805 14.1922 224.371 12.7514 224.371 10.9647C224.371 9.17812 223.82 7.7373 222.702 6.62786C221.598 5.51843 220.175 4.97092 218.433 4.97092C216.691 4.97092 215.253 5.51843 214.15 6.62786ZM212.19 17.045C210.535 15.4169 209.707 13.3853 209.707 10.9503C209.707 8.51534 210.535 6.48378 212.19 4.85565C213.845 3.22752 215.921 2.40625 218.419 2.40625C220.916 2.40625 222.992 3.22752 224.647 4.85565C226.303 6.48378 227.13 8.51534 227.13 10.9503C227.13 13.3853 226.303 15.4169 224.647 17.045C222.992 18.6731 220.916 19.4944 218.419 19.4944C215.921 19.4944 213.845 18.6731 212.19 17.045Z" fill="#35393A"/>
<path d="M232.375 11.1954H236.789C237.921 11.1954 238.778 10.936 239.387 10.4173C239.983 9.89865 240.288 9.19264 240.288 8.29933C240.288 7.40602 239.983 6.70002 239.387 6.18132C238.792 5.66263 237.921 5.40328 236.789 5.40328H232.375V11.1666V11.1954ZM229.703 19.0335V2.88184H236.803C238.676 2.88184 240.201 3.40053 241.348 4.43793C242.509 5.47532 243.075 6.77206 243.075 8.29933C243.075 9.82661 242.495 11.1233 241.348 12.1607C240.186 13.1981 238.676 13.7168 236.803 13.7168H232.389V19.0191H229.718L229.703 19.0335Z" fill="#35393A"/>
<path d="M245.398 19.0335V2.88184H248.085V13.616L247.852 15.6908H248.085L255.402 2.88184H259.003V19.0335H256.331V8.29933L256.564 6.22455H256.331L249.014 19.0335H245.398Z" fill="#35393A"/>
<path d="M265.375 6.15251C264.766 6.64239 264.475 7.27635 264.475 8.0688C264.475 8.86125 264.78 9.49522 265.375 9.9851C265.985 10.475 266.842 10.7199 267.96 10.7199H272.374V5.41769H267.96C266.842 5.41769 265.985 5.66263 265.375 6.15251ZM261.688 8.0688C261.688 6.57034 262.254 5.33124 263.386 4.35148C264.519 3.37172 266.043 2.88184 267.974 2.88184H275.074V19.0335H272.403V13.2702H268.453L264.969 19.0335H261.833L265.666 12.9244C264.446 12.5642 263.473 11.959 262.776 11.0945C262.065 10.23 261.717 9.22146 261.717 8.0688H261.688Z" fill="#35393A"/>
<path d="M102.612 40.9622H107.026C108.158 40.9622 109.015 40.7029 109.625 40.1842C110.22 39.6655 110.525 38.9595 110.525 38.0662C110.525 37.1729 110.22 36.4669 109.625 35.9482C109.029 35.4295 108.158 35.1701 107.026 35.1701H102.612V40.9334V40.9622ZM99.9258 48.8147V32.6631H107.026C108.899 32.6631 110.423 33.1818 111.57 34.2192C112.732 35.2566 113.298 36.5533 113.298 38.0806C113.298 39.6079 112.717 40.9046 111.57 41.942C110.409 42.9794 108.899 43.4981 107.026 43.4981H102.612V48.8003H99.9403L99.9258 48.8147Z" fill="#35393A"/>
<path d="M118.308 46.2654H122.025C123.158 46.2654 124.014 46.0061 124.624 45.4874C125.219 44.9687 125.524 44.2627 125.524 43.3694C125.524 42.4761 125.219 41.7701 124.624 41.2514C124.029 40.7327 123.158 40.4733 122.025 40.4733H118.308V46.2366V46.2654ZM115.637 48.8157V32.6641H118.308V37.9663H122.025C123.898 37.9663 125.423 38.485 126.57 39.5224C127.731 40.5598 128.297 41.8565 128.297 43.3838C128.297 44.9111 127.717 46.2078 126.57 47.2452C125.408 48.2826 123.898 48.8013 122.025 48.8013H115.637V48.8157ZM130.287 48.8157V32.6641H132.958V48.8157H130.287Z" fill="#35393A"/>
<path d="M136.211 48.8155V32.6494H138.882V39.3492H146.912V32.6494H149.583V48.8155H146.912V41.8851H138.882V48.8155H136.211Z" fill="#35393A"/>
<path d="M156.585 36.3947C155.481 37.5041 154.929 38.945 154.929 40.7316C154.929 42.5182 155.481 43.959 156.585 45.0685C157.688 46.1779 159.111 46.7254 160.868 46.7254C162.625 46.7254 164.033 46.1779 165.136 45.0685C166.24 43.959 166.806 42.5182 166.806 40.7316C166.806 38.945 166.254 37.5041 165.136 36.3947C164.033 35.2853 162.61 34.7378 160.868 34.7378C159.125 34.7378 157.688 35.2853 156.585 36.3947ZM154.639 46.8263C152.984 45.1981 152.156 43.1666 152.156 40.7316C152.156 38.2966 152.984 36.265 154.639 34.6369C156.294 33.0088 158.37 32.1875 160.868 32.1875C163.365 32.1875 165.441 33.0088 167.097 34.6369C168.752 36.265 169.579 38.2966 169.579 40.7316C169.579 43.1666 168.752 45.1981 167.097 46.8263C165.441 48.4544 163.365 49.2757 160.868 49.2757C158.37 49.2757 156.294 48.4544 154.639 46.8263Z" fill="#35393A"/>
<path d="M171.797 38.0813V32.6638H174.468V38.0813C174.468 39.0755 174.773 39.8679 175.383 40.4443C175.993 41.0206 176.85 41.3088 177.953 41.3088C179.056 41.3088 180 41.1215 180.842 40.7324C181.176 40.5739 181.496 40.3866 181.801 40.1561V32.6494H184.472V48.801H181.801V42.5767C181.38 42.8216 180.988 43.0089 180.61 43.153C179.637 43.542 178.519 43.7293 177.256 43.7293C175.557 43.7293 174.207 43.2395 173.249 42.2453C172.276 41.2511 171.797 39.8679 171.797 38.0813Z" fill="#35393A"/>
<path d="M187.727 48.8155V32.6494H190.398V39.3492H198.427V32.6494H201.099V48.8155H198.427V41.8851H190.398V48.8155H187.727Z" fill="#35393A"/>
<path d="M207.022 46.2654H210.739C211.871 46.2654 212.728 46.0061 213.338 45.4874C213.933 44.9687 214.238 44.2627 214.238 43.3694C214.238 42.4761 213.933 41.7701 213.338 41.2514C212.743 40.7327 211.871 40.4733 210.739 40.4733H207.022V46.2366V46.2654ZM204.35 48.8157V32.6641H207.022V37.9663H210.739C212.612 37.9663 214.136 38.485 215.283 39.5224C216.445 40.5598 217.011 41.8565 217.011 43.3838C217.011 44.9111 216.43 46.2078 215.283 47.2452C214.122 48.2826 212.612 48.8013 210.739 48.8013H204.336L204.35 48.8157ZM219 48.8157V32.6641H221.672V48.8157H219Z" fill="#35393A"/>
<path d="M223.66 48.8155L227.958 40.8477L223.892 32.6494H226.796L230.165 39.5798H231.21L234.593 32.6494H237.497L233.417 40.8477L237.729 48.8155H234.825L231.21 42.0004H230.165L226.564 48.8155H223.66Z" fill="#35393A"/>
<path d="M99.9258 78.5823V62.4307H102.612V69.1161H105.283L110.162 62.4307H113.298L107.606 70.1535L113.53 78.5823H110.278L105.4 71.6519H102.612V78.5823H99.9258Z" fill="#35393A"/>
<path d="M118.092 66.1623C116.989 67.2717 116.437 68.7125 116.437 70.4992C116.437 72.2858 116.989 73.7266 118.092 74.836C119.196 75.9455 120.619 76.493 122.376 76.493C124.132 76.493 125.541 75.9455 126.644 74.836C127.748 73.7266 128.314 72.2858 128.314 70.4992C128.314 68.7125 127.762 67.2717 126.644 66.1623C125.541 65.0528 124.118 64.5053 122.376 64.5053C120.633 64.5053 119.196 65.0528 118.092 66.1623ZM116.147 76.5938C114.492 74.9657 113.664 72.9342 113.664 70.4992C113.664 68.0642 114.492 66.0326 116.147 64.4045C117.802 62.7763 119.878 61.9551 122.376 61.9551C124.873 61.9551 126.949 62.7763 128.604 64.4045C130.26 66.0326 131.087 68.0642 131.087 70.4992C131.087 72.9342 130.26 74.9657 128.604 76.5938C126.949 78.222 124.873 79.0432 122.376 79.0432C119.878 79.0432 117.802 78.222 116.147 76.5938Z" fill="#35393A"/>
<path d="M133.656 78.5823V62.4307H138.07L142.498 72.4588H143.079L147.493 62.4307H151.791V78.5823H149.119V67.2718L149.352 65.0818H149.119L144.822 74.8794H140.625L136.328 65.0818H136.095L136.328 67.2718V78.5823H133.656Z" fill="#35393A"/>
<path d="M155.055 78.5823V62.4307H159.469L163.882 72.4588H164.463L168.892 62.4307H173.189V78.5823H170.518V67.2718L170.75 65.0818H170.518L166.205 74.8794H162.024L157.726 65.0818H157.494L157.726 67.2718V78.5823H155.055Z" fill="#35393A"/>
<path d="M174.82 62.4307H177.608L180.512 69.8077H183.314L186.218 62.4307H189.006L182.501 78.5823H179.699L182.269 72.3435H178.77L174.82 62.4307Z" fill="#35393A"/>
<path d="M190.281 78.5823V62.4307H192.953V69.1161H200.982V62.4307H203.653V78.5823H200.982V71.6519H192.953V78.5823H190.281Z" fill="#35393A"/>
<path d="M206.906 78.5823V62.4307H209.592V73.1504L209.36 75.2396H209.592L216.91 62.4307H220.511V78.5823H217.839V67.8482L218.072 65.7734H217.839L210.522 78.5823H206.906Z" fill="#35393A"/>
<path d="M223.777 78.5823V62.4307H226.449V69.1161H229.12L234.013 62.4307H237.15L231.443 70.1535L237.382 78.5823H234.13L229.237 71.6519H226.449V78.5823H223.777Z" fill="#35393A"/>
<path d="M242.26 71.8825H248.402L246.558 64.9521H244.003L242.26 71.8825ZM237.847 78.5823L242.028 62.4307H248.649L252.947 78.5823H250.159L249.041 74.4327H241.549L240.504 78.5823H237.832H237.847Z" fill="#35393A"/>
<path d="M254.934 78.5823V62.4307H257.605V76.0464H264.937V62.4307H267.609V76.0464H269.816V81.5792H267.26V78.5823H254.934Z" fill="#35393A"/>
<path d="M272.023 78.5823V62.4307H274.71V73.1504L274.477 75.2396H274.71L282.027 62.4307H285.628V78.5823H282.956V67.8482L283.189 65.7734H282.956L275.639 78.5823H272.023Z" fill="#35393A"/>
<path d="M291.798 57.3447H294.005C294.005 57.8058 294.15 58.166 294.441 58.4398C294.731 58.7135 295.123 58.8432 295.631 58.8432C296.14 58.8432 296.546 58.7135 296.822 58.4398C297.112 58.166 297.258 57.8058 297.258 57.3447H299.465C299.465 58.3389 299.116 59.1458 298.434 59.7653C297.751 60.3849 296.807 60.6874 295.617 60.6874C294.426 60.6874 293.483 60.3849 292.8 59.7653C292.118 59.1458 291.784 58.3389 291.784 57.3447M288.895 78.5825V62.4308H291.566V73.165L291.334 75.2398H291.566L298.898 62.4308H302.499V78.5825H299.828V67.8483L300.06 65.7735H299.828L292.495 78.5825H288.895Z" fill="#35393A"/>
<path fill-rule="evenodd" clip-rule="evenodd" d="M10.344 0H75.3031C80.7188 0 85.1471 4.39451 85.1471 9.76878V74.2312C85.1471 79.6055 80.7188 84 75.3031 84H10.344C4.92837 84 0.5 79.6055 0.5 74.2312V9.76878C0.5 4.39451 4.92837 0 10.344 0Z" fill="#EE4143"/>
<path d="M62.1064 83.9994C61.4386 83.8697 60.6836 83.8697 59.856 83.9994H58.375C59.5946 83.7689 60.8868 83.6104 62.2226 83.5384C64.6763 83.4087 67.0139 83.5816 69.0757 83.9994H62.1064Z" fill="#9C5557"/>
<path d="M62.1059 83.9996C61.4381 83.8699 60.6831 83.8699 59.8555 83.9996H62.1059Z" fill="#D4D5D5"/>
<path d="M85.1484 56.9843L61.2497 77.3287L48.2695 75.6141L76.3062 51.293C76.3062 51.293 81.475 49.492 85.1484 54.1459V56.9843Z" fill="#948284"/>
<path d="M61.1589 67.8191C58.1825 67.9776 58.5164 68.943 56.2079 69.8075C55.2931 70.1533 53.4492 71.3636 52.6797 71.7814L66.0229 59.0013C67.7071 58.2233 69.3623 57.5317 70.9304 56.9409C77.3769 54.5348 82.6619 53.7279 85.1447 54.9238V55.9756C81.3987 56.062 78.19 56.6672 75.2716 57.7622C70.1028 59.6929 65.8631 63.1365 61.1589 67.8047" fill="#948284"/>
<path d="M10.0547 54.8953L54.3674 50.1694L72.1389 35.5738C72.1389 35.5738 47.645 33.3261 29.1039 38.7724C10.5629 44.2188 10.0547 54.8953 10.0547 54.8953Z" fill="#948284"/>
<path d="M52.7993 43.4122C45.046 43.3545 38.2365 44.9395 32.6756 47.0142C26.868 49.1899 22.4106 51.913 19.6083 53.8726L10.0547 54.8955C10.0547 54.8955 10.0837 54.4489 10.2725 53.6852C11.2743 51.7113 15.3687 49.406 21.4813 47.1151C28.0005 44.6657 36.8281 42.2451 46.6286 40.2568C54.9336 38.571 61.7722 37.8938 67.2895 37.793C65.3875 38.2252 63.2822 38.8736 61.0317 39.7093C58.4328 40.689 55.6451 41.9137 52.7848 43.3834" fill="#948284"/>
<path d="M12.4922 29.7818L50.0389 25.1424L75.767 0H45.204L12.4922 29.7818Z" fill="#948284"/>
<path d="M27.4055 24.3211C24.0516 25.2576 20.988 26.2518 18.2874 27.2604C16.1967 28.0384 14.3237 28.8453 12.7266 29.6233L39.7469 10.6909C48.2261 6.49811 56.2988 2.86724 63.4132 0H74.8398L74.4478 1.33997C68.916 1.78662 68.916 3.141 61.787 5.80652C50.433 10.0569 37.9755 16.6991 27.391 24.3211" fill="#948284"/>
<path d="M17.1971 -0.000240205C11.041 3.32806 5.4075 6.59873 0.5 9.65328V33.3116C8.97923 27.289 21.8868 19.667 36.7545 12.1747C46.3372 7.34796 55.4698 3.19839 63.4118 -0.0146484H17.1971V-0.000240205Z" fill="white"/>
<path d="M42.9369 20.791C21.9276 24.5659 5.57896 31.2658 6.363 35.4297L10.0654 54.9097C9.28136 50.7601 25.7171 44.5357 46.6393 40.2709C69.9572 35.5306 81.7033 38.8301 85.1443 40.17V34.8102L82.5599 21.18C82.5599 21.18 72.6578 15.4455 42.9369 20.8054" fill="white"/>
<path d="M0.5 14.2642C14.3804 14.2065 28.5947 10.8494 42.2428 5.73448C46.8599 4.00549 51.4189 2.07479 55.8763 0H63.4263C56.3119 2.86724 48.2392 6.49811 39.76 10.6909C38.7582 11.1808 37.7709 11.6851 36.7545 12.1894C21.8868 19.6816 8.97923 27.2892 0.5 33.3118V14.2497V14.2642Z" fill="white"/>
<path d="M85.1465 40.1554C84.9142 40.069 84.6383 39.9681 84.3334 39.8673C82.6782 39.3053 79.9341 38.5849 75.9268 38.1527C74.5184 36.928 71.3968 36.8703 67.3023 37.8069C61.785 37.9077 54.9465 38.5705 46.6415 40.2707C36.841 42.259 28.0133 44.694 21.4942 47.129C15.3816 49.4199 11.2871 51.7252 10.2853 53.6992C10.0821 54.117 10.0095 54.5204 10.0821 54.895L6.37965 35.4151C5.94407 33.153 10.6047 30.1417 18.2999 27.26C19.2292 26.9143 20.202 26.5685 21.2038 26.2227C38.4091 35.9914 61.5092 36.2364 84.5802 31.7554L85.161 34.7956V40.1554H85.1465Z" fill="white"/>
<path d="M49.5166 45.1699C36.7687 52.3884 28.1298 61.2063 30.2496 64.8804L40.1372 82.0982C38.0319 78.4241 46.6563 69.5918 59.4042 62.3877C70.6276 56.0481 81.2847 53.0656 85.1323 54.9243V53.9157L76.4208 38.7582C74.3155 35.0841 62.2645 37.9514 49.5021 45.1699" fill="white"/>
<path d="M76.4197 38.7291C76.4197 38.7291 76.3326 38.585 76.2891 38.5273C76.3326 38.5994 76.3907 38.657 76.4197 38.7291Z" fill="#221E14"/>
<path d="M40.1387 82.1123L32.5742 68.9432C34.3891 68.3525 36.1459 67.7473 37.8302 67.1134C57.8522 59.6211 68.7561 48.9013 70.2661 37.2739C73.1845 36.9281 75.3188 37.3027 76.2481 38.4698C76.2916 38.5418 76.3497 38.5995 76.3787 38.6715L85.0903 53.829V54.8375C82.622 53.6417 77.3225 54.4341 70.8759 56.8547C69.2934 57.4454 67.6527 58.137 65.9684 58.9151C63.8196 59.9092 61.5982 61.0331 59.3622 62.301C46.9628 69.3178 38.469 77.8475 39.9355 81.6945C39.979 81.8097 40.0226 81.9106 40.0952 82.0259" fill="white"/>
<path d="M59.6496 70.3415C51.3446 71.9264 45.2756 76.5802 46.0887 80.7298L46.7275 83.9861H77.8858L76.1289 74.9665C75.3159 70.8169 67.9401 68.7421 59.6496 70.327" fill="white"/>
<path d="M70.874 83.9996C73.139 83.7979 75.3894 83.308 77.6109 82.5588L77.8867 83.9996H70.874ZM46.714 83.9996L46.0751 80.7433C46.0751 80.7433 46.0751 80.7433 46.0751 80.7289C46.0751 80.7289 46.0751 80.7289 46.0751 80.7145C45.7992 79.0431 46.6414 77.2997 48.282 75.7148C53.7558 80.8442 59.7813 83.5241 65.8793 84.1004H46.7285L46.714 83.9996Z" fill="white"/>
</g>
<defs>
<clipPath id="clip0_525_11813">
<rect width="302" height="84" fill="white" transform="translate(0.5)"/>
</clipPath>
</defs>
</svg>
