<svg width="251" height="60" viewBox="0 0 251 60" fill="none" xmlns="http://www.w3.org/2000/svg">
<g clip-path="url(#clip0_513_4187)">
<path d="M25.5888 58.7701C23.1688 60.5201 20.0987 60.1201 18.2188 57.8101C20.4388 58.7901 23.0888 59.1301 25.5888 58.7701Z" fill="#E63236"/>
<path d="M27.2904 21.4402C24.3604 24.2702 21.0904 26.7202 17.5604 28.7402C17.4704 28.7902 17.3604 28.8302 17.2604 28.8502C16.7304 28.9502 16.2104 28.6002 16.1104 28.0702C15.4804 24.7402 15.1904 21.3602 15.2504 17.9702C15.2504 17.9302 15.2504 17.8902 15.2604 17.8402C15.3404 17.3002 15.8404 16.9302 16.3804 17.0102C20.0004 17.5502 23.5604 18.4802 26.9704 19.8102C27.1004 19.8602 27.2204 19.9402 27.3204 20.0402C27.7004 20.4302 27.6904 21.0502 27.3004 21.4302M34.2404 16.7502C33.9804 16.5202 33.6904 16.3302 33.3804 16.1802C27.2404 13.1802 20.6004 11.3502 13.7904 10.7702C11.6204 10.5802 9.71043 12.1802 9.52043 14.3402C9.52043 14.3402 9.52043 14.3602 9.52043 14.3702C9.00043 20.7302 9.58043 27.1402 11.2504 33.3002C11.8204 35.4002 13.9804 36.6402 16.0804 36.0702C16.3104 36.0102 16.5304 35.9302 16.7404 35.8302C23.5604 32.6002 29.6504 27.9902 34.6204 22.3102C36.0504 20.6702 35.8904 18.1802 34.2504 16.7502H34.2404Z" fill="#E63236"/>
<path d="M17.7892 26.3199C20.2692 24.7999 22.5992 23.0599 24.7592 21.1099C22.2992 20.2499 19.7692 19.5899 17.1992 19.1499C17.2092 21.5499 17.4092 23.9499 17.7892 26.3199Z" fill="#E63236"/>
<path d="M46.7399 33.1899C45.3099 34.4599 43.5899 35.7099 41.6499 36.8899C30.5199 43.7099 14.5199 47.1199 5.91992 44.4999C7.17992 48.6799 17.6599 49.9599 29.3299 47.3599C40.9999 44.7599 49.4399 39.2699 48.1799 35.0899C47.9699 34.3899 47.4799 33.7499 46.7299 33.1899" fill="#E63236"/>
<path d="M43.9201 17.5098C41.9101 17.1098 39.5401 16.9698 36.9401 17.0998C37.5401 18.3098 37.7101 19.6998 37.4101 21.0198C37.6001 21.0198 37.7901 21.0098 37.9701 20.9998C38.6601 20.9798 39.3301 20.9998 39.9601 21.0198C40.5401 21.0398 41.0901 21.0898 41.6201 21.1398C42.1001 21.1898 42.5501 21.2598 42.9701 21.3398C43.3601 21.4098 43.7201 21.4898 44.0601 21.5798C44.3701 21.6598 44.6501 21.7498 44.9101 21.8398C45.1501 21.9198 45.3701 22.0098 45.5601 22.0998C45.7401 22.1798 45.9001 22.2598 46.0401 22.3398C46.1701 22.4098 46.2901 22.4898 46.3801 22.5598C46.4701 22.6198 46.5501 22.6898 46.6201 22.7398C46.6801 22.7898 46.7301 22.8398 46.7701 22.8898C46.8101 22.9298 46.8401 22.9698 46.8701 22.9998C46.8901 23.0298 46.9101 23.0598 46.9301 23.0798C46.9401 23.0998 46.9501 23.1198 46.9601 23.1398C46.9601 23.1598 46.9701 23.1698 46.9801 23.1898C46.9801 23.1998 46.9801 23.2098 46.9901 23.2298C46.9901 23.2498 46.9901 23.2598 47.0001 23.2798C47.0001 23.2998 47.0001 23.3298 47.0001 23.3598C47.0001 23.3898 47.0001 23.4298 47.0001 23.4798C47.0001 23.5298 47.0001 23.5798 46.9801 23.6498C46.9701 23.7198 46.9501 23.7998 46.9301 23.8798C46.9001 23.9698 46.8701 24.0798 46.8301 24.1898C46.7801 24.3098 46.7301 24.4398 46.6601 24.5898C46.5901 24.7398 46.5001 24.9098 46.3901 25.0898C46.2801 25.2798 46.1401 25.4898 45.9901 25.6998C45.8301 25.9298 45.6401 26.1698 45.4301 26.4198C45.2001 26.6898 44.9501 26.9798 44.6701 27.2698C44.3601 27.5898 44.0301 27.9098 43.6601 28.2398C43.2601 28.5998 42.8301 28.9598 42.3601 29.3298C41.8501 29.7298 41.3101 30.1298 40.7301 30.5298C40.1001 30.9598 39.4401 31.3898 38.7401 31.8098C37.9901 32.2598 37.2101 32.6998 36.3901 33.1298C35.5301 33.5798 34.6401 34.0198 33.7201 34.4398C32.7701 34.8698 31.7901 35.2898 30.8001 35.6798C29.7901 36.0798 28.7501 36.4498 27.7101 36.7998C26.6701 37.1498 25.6101 37.4598 24.5601 37.7498C23.5201 38.0298 22.4901 38.2798 21.4601 38.4998C20.4701 38.7098 19.4801 38.8898 18.5201 39.0398C17.6001 39.1798 16.7001 39.2998 15.8301 39.3798C15.0101 39.4598 14.2101 39.5098 13.4401 39.5398C12.7301 39.5698 12.0401 39.5698 11.3801 39.5498C10.7801 39.5298 10.2001 39.4998 9.66011 39.4498C9.16011 39.3998 8.69011 39.3398 8.24011 39.2698C7.83011 39.1998 7.45011 39.1198 7.10011 39.0398C6.78011 38.9598 6.48011 38.8698 6.20011 38.7798C5.95011 38.6998 5.72011 38.6098 5.51011 38.5198C5.32011 38.4398 5.15011 38.3498 4.99011 38.2698C4.85011 38.1898 4.72011 38.1198 4.62011 38.0498C4.52011 37.9798 4.43011 37.9198 4.36011 37.8598C4.29011 37.7998 4.24011 37.7498 4.19011 37.7098C4.15011 37.6698 4.11011 37.6298 4.08011 37.5898C4.05011 37.5598 4.03011 37.5298 4.02011 37.4998C4.00011 37.4798 3.99011 37.4498 3.98011 37.4298C3.98011 37.4098 3.96011 37.3898 3.96011 37.3798C3.96011 37.3598 3.95011 37.3498 3.94011 37.3298C3.94011 37.3098 3.94011 37.2898 3.93011 37.2698C3.93011 37.2398 3.93011 37.2198 3.93011 37.1798C3.93011 37.1398 3.93011 37.0998 3.93011 37.0498C3.93011 36.9998 3.94011 36.9398 3.96011 36.8698C3.97011 36.7998 3.99011 36.7098 4.02011 36.6198C4.05011 36.5198 4.09011 36.4098 4.13011 36.2898C4.18011 36.1598 4.24011 36.0198 4.32011 35.8698C4.40011 35.7098 4.50011 35.5298 4.61011 35.3498C4.73011 35.1498 4.88011 34.9398 5.04011 34.7198C5.22011 34.4798 5.42011 34.2298 5.64011 33.9698C5.88011 33.6898 6.15011 33.3998 6.45011 33.0998C6.77011 32.7698 7.13011 32.4398 7.52011 32.1098C7.88011 31.7998 8.26011 31.4798 8.67011 31.1598C8.36011 29.7298 8.10011 28.2898 7.89011 26.8498C-2.29989 33.8998 -2.69989 41.1598 7.00011 43.0698C16.7001 44.9698 32.8201 40.7998 43.0101 33.7498C53.2001 26.6998 53.6001 19.4398 43.9001 17.5298" fill="#E63236"/>
<path d="M15.6409 54.0601C18.9709 57.1601 25.1509 57.8801 29.4409 55.6601C29.9009 55.4201 30.3309 55.1501 30.7209 54.8601C25.6509 56.1601 19.7009 55.8401 15.6309 54.0601" fill="#E63236"/>
<path d="M12.5801 50.1602C15.9101 53.4902 24.1501 54.6702 30.9901 52.8002C35.6701 51.5202 38.6601 49.0802 38.7401 46.4702C30.4101 49.9502 19.5901 51.4802 12.5801 50.1502" fill="#E63236"/>
<path d="M75.6194 25.5898H79.4094C80.3094 25.5898 80.7894 26.0598 80.8294 27.0098L81.7994 49.5499H78.3294L77.4994 28.4698H76.8094L71.9494 45.5199C71.7394 46.3099 71.2394 46.6998 70.4594 46.6998H67.4394C66.6294 46.6998 66.1194 46.3099 65.9094 45.5199L61.0094 28.4698H60.3494L59.5494 49.5499H56.1094L57.0094 27.0098C57.0594 26.0598 57.5294 25.5898 58.4294 25.5898H62.2794C62.9994 25.5898 63.4794 25.9799 63.7394 26.7699L67.7994 40.7999C68.0294 41.6299 68.2994 42.7098 68.5994 44.0298H69.2194C69.4994 42.7998 69.7794 41.7199 70.0494 40.7699L74.0794 26.7699C74.3294 25.9799 74.8394 25.5898 75.6094 25.5898" fill="#3C3C3B"/>
<path d="M97.5297 44.6602C95.7197 46.2302 93.8097 47.0202 91.7997 47.0202C90.9397 47.0202 90.3197 46.8302 89.9197 46.4602C89.5297 46.0902 89.3297 45.4901 89.3297 44.6501V43.7502C89.3297 43.0602 89.4797 42.5302 89.7797 42.1902C90.0797 41.8202 90.5997 41.6202 91.3397 41.6002H97.5197V44.6602H97.5297ZM99.4397 33.4102C98.4697 32.5802 96.9497 32.1602 94.8897 32.1602C92.4597 32.1602 89.7197 32.4302 86.6597 32.9602L86.9697 35.4301C90.4897 35.1501 92.8797 35.0101 94.1597 35.0101C95.4397 35.0101 96.3397 35.2102 96.7997 35.6002C97.2597 35.9902 97.5097 36.7102 97.5297 37.7502V39.0702H90.7197C89.1897 39.0702 88.0097 39.4401 87.1797 40.1801C86.3497 40.9201 85.9297 41.9601 85.9297 43.3102V45.0802C85.9297 46.6102 86.3897 47.7901 87.3197 48.6201C88.2697 49.4501 89.5297 49.8701 91.1097 49.8701C93.6797 49.8701 95.9397 48.8702 97.8797 46.8802L98.2597 49.5502H100.9V37.7402C100.9 35.6802 100.41 34.2301 99.4397 33.4001V33.4102Z" fill="#3C3C3B"/>
<path d="M115.479 40.2801L110.689 39.1001C110.129 38.9401 109.779 38.8301 109.609 38.7901C109.449 38.7201 109.219 38.6101 108.919 38.4401C108.639 38.2801 108.469 38.0801 108.399 37.8501C108.329 37.6001 108.299 37.2701 108.299 36.8801C108.299 36.0201 108.539 35.5001 109.029 35.3201C109.539 35.1101 110.619 35.0101 112.259 35.0101C112.999 35.0101 115.139 35.0701 118.679 35.1801L118.959 32.7501C116.849 32.4001 114.449 32.2101 111.739 32.1601C109.289 32.1401 107.549 32.4501 106.529 33.1001C105.529 33.7501 105.039 35.0101 105.039 36.8901C105.039 38.2801 105.329 39.3401 105.909 40.0801C106.489 40.8001 107.479 41.3401 108.899 41.7101L113.619 42.8901C114.199 43.0301 114.569 43.1301 114.729 43.2001C114.909 43.2501 115.159 43.3501 115.459 43.5101C115.759 43.6701 115.959 43.8801 116.049 44.1401C116.139 44.3701 116.189 44.6701 116.189 45.0401C116.189 45.9001 115.869 46.4601 115.219 46.7401C114.569 46.9901 113.299 47.1201 111.399 47.1201C108.829 47.1201 106.899 47.0601 105.599 46.9501L105.359 49.4501C107.489 49.7701 109.739 49.9401 112.099 49.9401C114.809 49.9401 116.709 49.6301 117.799 49.0001C118.909 48.3501 119.469 47.0301 119.469 45.0401C119.469 43.6001 119.169 42.5501 118.569 41.8801C117.969 41.1801 116.949 40.6501 115.509 40.2801" fill="#3C3C3B"/>
<path d="M133.149 40.2801L128.359 39.1001C127.799 38.9401 127.449 38.8301 127.279 38.7901C127.119 38.7201 126.889 38.6101 126.589 38.4401C126.309 38.2801 126.139 38.0801 126.069 37.8501C125.999 37.6001 125.969 37.2701 125.969 36.8801C125.969 36.0201 126.209 35.5001 126.699 35.3201C127.209 35.1101 128.289 35.0101 129.929 35.0101C130.669 35.0101 132.809 35.0701 136.359 35.1801L136.639 32.7501C134.529 32.4001 132.129 32.2101 129.419 32.1601C126.969 32.1401 125.229 32.4501 124.209 33.1001C123.209 33.7501 122.719 35.0101 122.719 36.8901C122.719 38.2801 123.009 39.3401 123.589 40.0801C124.169 40.8001 125.159 41.3401 126.579 41.7101L131.299 42.8901C131.879 43.0301 132.249 43.1301 132.409 43.2001C132.599 43.2501 132.839 43.3501 133.139 43.5101C133.439 43.6701 133.639 43.8801 133.729 44.1401C133.819 44.3701 133.869 44.6701 133.869 45.0401C133.869 45.9001 133.549 46.4601 132.899 46.7401C132.249 46.9901 130.979 47.1201 129.079 47.1201C126.509 47.1201 124.579 47.0601 123.279 46.9501L123.039 49.4501C125.169 49.7701 127.419 49.9401 129.779 49.9401C132.489 49.9401 134.389 49.6301 135.479 49.0001C136.589 48.3501 137.149 47.0301 137.149 45.0401C137.149 43.6001 136.849 42.5501 136.249 41.8801C135.649 41.1801 134.629 40.6501 133.189 40.2801" fill="#3C3C3B"/>
<path d="M153.67 47.3702C152.88 48.5702 151.55 49.1802 149.68 49.1802C147.81 49.1802 145.62 48.6202 142.84 47.5102V36.6402C144.25 35.4402 145.48 34.5802 146.52 34.0702C147.56 33.5402 148.62 33.2702 149.68 33.2702C151.56 33.2702 152.89 33.8702 153.67 35.0802C154.46 36.2802 154.85 38.3302 154.85 41.2302C154.85 44.1302 154.46 46.1702 153.67 47.3802M149.67 32.4702C147.54 32.4702 145.24 33.6202 142.76 35.9102L142.62 32.8902H142V56.8502H142.83V51.3302C142.83 49.7802 142.8 48.7102 142.73 48.1402C145.3 49.3702 147.62 49.9802 149.68 49.9802C151.86 49.9802 153.41 49.3202 154.33 48.0002C155.26 46.6602 155.72 44.4002 155.72 41.2302C155.72 38.0602 155.26 35.8102 154.33 34.4902C153.4 33.1502 151.85 32.4802 149.68 32.4802L149.67 32.4702Z" fill="#3C3C3B"/>
<path d="M162.889 35.0002C163.839 33.8402 165.459 33.2602 167.749 33.2602C169.629 33.2602 171.029 33.5802 171.949 34.2302C172.899 34.8802 173.389 35.8902 173.409 37.2502C173.459 38.4802 173.259 39.3902 172.819 39.9902C172.399 40.5902 171.699 40.8902 170.699 40.8902H161.429C161.449 38.0902 161.939 36.1202 162.889 34.9902M173.509 40.5902C174.069 39.8502 174.319 38.7102 174.269 37.1902C174.199 34.0402 172.009 32.4702 167.709 32.4702C165.119 32.4702 163.279 33.1302 162.189 34.4502C161.099 35.7502 160.559 37.9802 160.559 41.1502C160.559 44.3202 161.139 46.5902 162.299 47.9602C163.459 49.3002 165.359 49.9702 167.999 49.9702C170.639 49.9702 172.559 49.7602 173.899 49.3402L173.759 48.7102C171.909 49.0102 170.019 49.1602 168.099 49.1602C165.809 49.1602 164.139 48.6002 163.099 47.4902C162.059 46.3602 161.499 44.4102 161.429 41.6602H170.699C172.019 41.6602 172.959 41.3002 173.509 40.5802V40.5902Z" fill="#3C3C3B"/>
<path d="M180.509 35.9402L180.409 32.8802H179.789V49.5502H180.619V36.6702C182.309 35.4702 183.709 34.6002 184.819 34.0702C185.959 33.5402 187.089 33.2702 188.219 33.2702H188.809L188.979 32.4702H188.319C186.049 32.4702 183.449 33.6302 180.509 35.9402Z" fill="#3C3C3B"/>
<path d="M201.161 41.0799L195.531 40.3899C194.601 40.2699 193.911 39.9599 193.451 39.4499C192.991 38.9199 192.761 38.0599 192.761 36.8799C192.761 36.1599 192.831 35.5699 192.971 35.1099C193.131 34.6499 193.321 34.2899 193.531 34.0299C193.761 33.7499 194.121 33.5599 194.611 33.4399C195.121 33.3199 195.601 33.2499 196.071 33.2299C196.531 33.2099 197.201 33.2099 198.081 33.2299C200.091 33.2499 202.211 33.3499 204.441 33.5099L204.541 32.8799C202.531 32.6499 200.371 32.5099 198.081 32.4599C195.791 32.4099 194.191 32.6599 193.291 33.1899C192.391 33.6999 191.941 34.9299 191.941 36.8699C191.941 38.2599 192.241 39.2899 192.841 39.9599C193.441 40.6299 194.351 41.0399 195.551 41.1799L201.181 41.8699C203.151 42.1199 204.131 43.2699 204.131 45.3099C204.131 46.9099 203.741 47.9399 202.951 48.3999C202.161 48.8599 200.661 49.1199 198.441 49.1599C196.471 49.1799 194.481 49.0999 192.471 48.9199L192.371 49.5399C194.221 49.7899 196.241 49.9199 198.411 49.9199C199.611 49.9199 200.561 49.8699 201.261 49.7799C201.951 49.6899 202.611 49.4899 203.241 49.1899C203.861 48.8899 204.311 48.4299 204.561 47.7999C204.841 47.1799 204.981 46.3399 204.981 45.2999C204.981 42.7999 203.721 41.3899 201.191 41.0599" fill="#3C3C3B"/>
</g>
<defs>
<clipPath id="clip0_513_4187">
<rect width="251" height="60" fill="white"/>
</clipPath>
</defs>
</svg>
