<svg width="21" height="29" viewBox="0 0 21 29" fill="none" xmlns="http://www.w3.org/2000/svg">
<mask id="mask0_524_11402" style="mask-type:alpha" maskUnits="userSpaceOnUse" x="0" y="7" width="21" height="21">
<circle cx="10.6601" cy="17.6603" r="10" transform="rotate(120 10.6601 17.6603)" fill="#EE4143"/>
</mask>
<g mask="url(#mask0_524_11402)">
<rect x="40.6602" y="5.2251" width="49" height="20" transform="rotate(120 40.6602 5.2251)" fill="#EE4143"/>
</g>
<mask id="mask1_524_11402" style="mask-type:alpha" maskUnits="userSpaceOnUse" x="1" y="2" width="20" height="22">
<circle cx="11.0001" cy="12.9999" r="10" transform="rotate(-60 11.0001 12.9999)" fill="#EE4143"/>
</mask>
<g mask="url(#mask1_524_11402)">
<rect x="-19" y="25.4351" width="49" height="20" transform="rotate(-60 -19 25.4351)" fill="#48B953"/>
</g>
<path fill-rule="evenodd" clip-rule="evenodd" d="M6.75 14.25C6.75 14.6642 7.08579 15 7.5 15C7.91421 15 8.25 14.6642 8.25 14.25L8.25 11.25L11.25 11.25C11.6642 11.25 12 10.9142 12 10.5C12 10.0858 11.6642 9.74999 11.25 9.74999L8.25 9.74999L8.25 6.75C8.25 6.33579 7.91421 6 7.5 6C7.08579 6 6.75 6.33579 6.75 6.75L6.75 9.74999L3.75 9.74999C3.33579 9.74999 3 10.0858 3 10.5C3 10.9142 3.33579 11.25 3.75 11.25L6.75 11.25L6.75 14.25Z" fill="#D9D9D9"/>
<path d="M11 20C11 19.4477 11.4477 19 12 19L18 19C18.5523 19 19 19.4477 19 20C19 20.5523 18.5523 21 18 21L12 21C11.4477 21 11 20.5523 11 20Z" fill="#D9D9D9"/>
</svg>
