<svg width="49" height="49" viewBox="0 0 49 49" fill="none" xmlns="http://www.w3.org/2000/svg">
    <g clip-path="url(#clip0_441_1813)">
        <path fill-rule="evenodd" clip-rule="evenodd"
              d="M5.70433 0H43.3462C46.4844 0 49.0505 2.56346 49.0505 5.69846V43.3015C49.0505 46.4365 46.4844 49 43.3462 49H5.70433C2.56611 49 0 46.4365 0 43.3015V5.69846C0 2.56346 2.56611 0 5.70433 0Z"
              fill="#EE4143"/>
        <path d="M35.6983 49.0002C35.3113 48.9245 34.8738 48.9245 34.3942 49.0002H33.536C34.2427 48.8657 34.9915 48.7732 35.7656 48.7312C37.1875 48.6556 38.542 48.7564 39.7367 49.0002H35.6983Z"
              fill="#9C5557"/>
        <path d="M35.6984 49.0001C35.3114 48.9244 34.8739 48.9244 34.3943 49.0001H35.6984Z" fill="#D4D5D5"/>
        <path d="M49.0505 33.2411L35.2019 45.1087L27.6803 44.1085L43.9267 29.9212C43.9267 29.9212 46.9219 28.8706 49.0505 31.5853V33.2411Z"
              fill="#948284"/>
        <path d="M35.1515 39.5615C33.4267 39.6539 33.6202 40.2171 32.2825 40.7214C31.7525 40.9231 30.684 41.6291 30.238 41.8728L37.97 34.4178C38.946 33.9639 39.9051 33.5605 40.8138 33.2159C44.5493 31.8123 47.6118 31.3416 49.0505 32.0392V32.6527C46.8799 32.7032 45.0205 33.0562 43.3294 33.6949C40.3342 34.8212 37.8775 36.8299 35.1515 39.5531"
              fill="#948284"/>
        <path d="M5.53601 32.0223L31.2139 29.2655L41.512 20.7515C41.512 20.7515 27.3185 19.4403 16.5745 22.6173C5.83048 25.7944 5.53601 32.0223 5.53601 32.0223Z"
              fill="#948284"/>
        <path d="M30.3052 25.3238C25.8125 25.2902 21.8665 26.2147 18.6442 27.425C15.2788 28.6941 12.6959 30.2826 11.0721 31.4257L5.53601 32.0224C5.53601 32.0224 5.55284 31.7619 5.66221 31.3164C6.24274 30.1649 8.61534 28.8202 12.1574 27.4838C15.935 26.055 21.0504 24.643 26.7295 23.4831C31.542 22.4998 35.5048 22.1047 38.7019 22.0459C37.5997 22.298 36.3798 22.6763 35.0757 23.1637C33.5697 23.7353 31.9543 24.4497 30.2968 25.307"
              fill="#948284"/>
        <path d="M6.94946 17.3727L28.7067 14.6664L43.6153 0H25.905L6.94946 17.3727Z" fill="#948284"/>
        <path d="M15.5901 14.1873C13.6466 14.7336 11.8714 15.3136 10.3065 15.9019C9.09492 16.3557 8.00959 16.8264 7.08411 17.2803L22.7416 6.23636C27.655 3.79057 32.3329 1.67256 36.4555 0H43.0769L42.8497 0.781647C39.6442 1.0422 39.6442 1.83225 35.5132 3.38714C28.9339 5.86655 21.7151 9.74117 15.5817 14.1873"
              fill="#948284"/>
        <path d="M9.67548 -0.00038426C6.10817 1.94113 2.84375 3.84902 0 5.63083V19.4315C4.91346 15.9183 12.393 11.4722 21.0084 7.10167C26.5613 4.28607 31.8534 1.86548 36.4555 -0.00878906H9.67548V-0.00038426Z"
              fill="white"/>
        <path d="M24.5925 12.128C12.4182 14.33 2.94465 18.2383 3.39898 20.6673L5.54441 32.0306C5.09009 29.61 14.6141 25.9791 26.7379 23.4913C40.2499 20.7261 47.0564 22.6508 49.0504 23.4324V20.3059L47.5528 12.3549C47.5528 12.3549 41.8148 9.0098 24.5925 12.1364"
              fill="white"/>
        <path d="M0 8.32076C8.04327 8.28714 16.2801 6.32882 24.1887 3.34511C26.8642 2.33654 29.506 1.21029 32.0889 0H36.4639C32.3413 1.67256 27.6635 3.79057 22.75 6.23636C22.1695 6.52213 21.5974 6.8163 21.0084 7.11046C12.393 11.481 4.91346 15.9187 0 19.4319V8.31235V8.32076Z"
              fill="white"/>
        <path d="M49.0505 23.4243C48.9159 23.3739 48.7561 23.3151 48.5794 23.2562C47.6203 22.9284 46.0301 22.5082 43.708 22.2561C42.8919 21.5416 41.083 21.508 38.7104 22.0543C35.5133 22.1132 31.5505 22.4998 26.738 23.4916C21.059 24.6514 15.9436 26.0718 12.1659 27.4922C8.62386 28.8286 6.25126 30.1734 5.67073 31.3248C5.55294 31.5686 5.51087 31.8039 5.55294 32.0224L3.40751 20.6591C3.15511 19.3396 5.85583 17.583 10.315 15.902C10.8534 15.7003 11.4171 15.4986 11.9977 15.2969C21.9676 20.9953 35.3534 21.1382 48.7224 18.5243L49.059 20.2977V23.4243H49.0505Z"
              fill="white"/>
        <path d="M28.4039 26.3493C21.0169 30.5601 16.0109 35.7038 17.2392 37.847L22.9688 47.8908C21.7488 45.7476 26.7464 40.5954 34.1334 36.393C40.6371 32.6949 46.8125 30.9551 49.0421 32.0393V31.451L43.994 22.6091C42.7741 20.4659 35.7909 22.1385 28.3955 26.3493"
              fill="white"/>
        <path d="M43.9939 22.5923C43.9939 22.5923 43.9435 22.5082 43.9182 22.4746C43.9435 22.5166 43.9771 22.5503 43.9939 22.5923Z"
              fill="#221E14"/>
        <path d="M22.9687 47.8992L18.5853 40.2172C19.637 39.8726 20.655 39.5196 21.631 39.1498C33.2332 34.7793 39.5517 28.5261 40.4267 21.7434C42.1178 21.5417 43.3546 21.7602 43.893 22.441C43.9183 22.4831 43.9519 22.5167 43.9687 22.5587L49.0168 31.4006V31.9889C47.5865 31.2913 44.5156 31.7536 40.78 33.1656C39.863 33.5102 38.9123 33.9136 37.9363 34.3674C36.6911 34.9474 35.4038 35.603 34.1082 36.3426C26.9231 40.4357 22.0012 45.4114 22.851 47.6554C22.8762 47.7227 22.9014 47.7815 22.9435 47.8487"
              fill="white"/>
        <path d="M34.2765 41.0322C29.464 41.9567 25.9471 44.6715 26.4183 47.0921L26.7885 48.9915H44.8438L43.8257 43.7301C43.3546 41.3095 39.0806 40.0993 34.2765 41.0238"
              fill="white"/>
        <path d="M40.78 49.0002C42.0925 48.8826 43.3966 48.5968 44.6839 48.1598L44.8437 49.0002H40.78ZM26.78 49.0002L26.4098 47.1008C26.4098 47.1008 26.4098 47.1008 26.4098 47.0924C26.4098 47.0924 26.4098 47.0924 26.4098 47.0839C26.25 46.109 26.7379 45.092 27.6887 44.1675C30.8605 47.1596 34.3521 48.7229 37.8858 49.0591H26.7884L26.78 49.0002Z"
              fill="white"/>
    </g>
    <defs>
        <clipPath id="clip0_441_1813">
            <rect width="175" height="49" fill="white"/>
        </clipPath>
    </defs>
</svg>
