<svg width="78" height="82" viewBox="0 0 78 82" fill="none" xmlns="http://www.w3.org/2000/svg">
<g clip-path="url(#clip0_524_11725)">
<path opacity="0.14" d="M64.7636 53.24L49.6036 50.13L47.4136 48.67C47.3536 48.63 47.2836 48.6 47.2236 48.58V46.63C52.9936 44.35 56.8336 38.77 56.8336 32.49V30.14C58.5336 29.69 59.7936 28.16 59.7936 26.32C59.7936 25.16 59.2936 24.08 58.4336 23.33V16.1C58.4336 12.87 56.6236 9.97 53.7236 8.55L50.8036 7.12C46.6336 2.85 39.7336 3.8 33.5336 5.3C26.9136 6.9 20.7236 10.19 20.4636 10.33C20.0036 10.57 19.8136 11.13 20.0236 11.61C21.3736 14.67 23.5236 16.91 26.4136 18.29V22.5C24.7136 22.94 23.4436 24.48 23.4436 26.32C23.4436 28.16 24.7036 29.7 26.4136 30.14V32.49C26.4136 38.77 30.2536 44.35 36.0236 46.63V48.58C35.9636 48.6 35.8936 48.63 35.8336 48.67L33.6436 50.13L18.4936 53.24C11.2136 54.73 5.93359 61.67 5.93359 69.73V80.32C5.93359 80.87 6.37359 81.32 6.93359 81.32H76.3036C76.8636 81.32 77.3036 80.87 77.3036 80.32V69.73C77.3036 61.67 72.0336 54.73 64.7636 53.24ZM56.8336 27.68H57.2436C57.1236 27.81 56.9836 27.92 56.8336 28.01V27.68Z" fill="#EE4143"/>
<path d="M24.3953 58.3698L36.3953 76.2798H1.69531V65.6898C1.69531 58.0898 6.63531 51.5798 13.4553 50.1798L28.8053 47.0298L23.5553 50.5098L28.5053 55.5798L24.3853 58.3698H24.3953Z" stroke="#EE4143" stroke-width="2" stroke-linecap="round" stroke-linejoin="round"/>
<path d="M31.7925 49.8299C31.7925 49.8299 31.7925 49.9199 31.8025 49.9699L31.3125 46.5099L31.7925 46.3999V49.8199V49.8299Z" stroke="#EE4143" stroke-width="2" stroke-linecap="round" stroke-linejoin="round"/>
<path d="M31.8047 49.9697L31.9447 50.9597C31.8547 50.6397 31.8047 50.3097 31.8047 49.9697Z" stroke="#EE4143" stroke-width="2" stroke-linecap="round" stroke-linejoin="round"/>
<path d="M40.8336 50.96L36.3836 76.28L31.9336 50.96C32.1336 51.78 32.5536 52.51 33.1336 53.09C33.9536 53.91 35.1136 54.43 36.3836 54.43C38.5336 54.43 40.3336 52.96 40.8336 50.96Z" stroke="#EE4143" stroke-width="2" stroke-linecap="round" stroke-linejoin="round"/>
<path d="M40.8438 50.9003L40.9737 50.0303C40.9737 50.3203 40.9237 50.6203 40.8438 50.9003Z" stroke="#EE4143" stroke-width="2" stroke-linecap="round" stroke-linejoin="round"/>
<path d="M41.4744 46.5102L40.9844 49.9702C40.9844 49.9702 40.9944 49.8802 40.9944 49.8302V46.4102L41.4744 46.5202V46.5102Z" stroke="#EE4143" stroke-width="2" stroke-linecap="round" stroke-linejoin="round"/>
<path d="M71.0745 65.6903V76.2803H36.3945L48.3945 58.3703L44.2745 55.5803L49.2245 50.5103L43.9745 47.0303L59.3245 50.1803C66.1345 51.5803 71.0745 58.1003 71.0745 65.6903Z" stroke="#EE4143" stroke-width="2" stroke-linecap="round" stroke-linejoin="round"/>
<path d="M24.3925 58.3697L28.5125 55.5797L23.5625 50.5097L28.8125 47.0297L31.1625 45.4697L31.3125 46.5197L31.8025 49.9797C31.8025 50.3197 31.8525 50.6497 31.9425 50.9697L36.3925 76.2897L24.3925 58.3797V58.3697Z" stroke="#EE4143" stroke-width="2" stroke-linecap="round" stroke-linejoin="round"/>
<path d="M31.9447 50.9597C31.8547 50.6397 31.8047 50.3097 31.8047 49.9697L31.9447 50.9597Z" stroke="#EE4143" stroke-width="2" stroke-linecap="round" stroke-linejoin="round"/>
<path d="M44.2667 55.58L48.3867 58.37L36.3867 76.28L40.8367 50.96C40.8367 50.96 40.8467 50.92 40.8467 50.9C40.9267 50.62 40.9767 50.32 40.9767 50.03V49.97L41.4667 46.51L41.6167 45.46L43.9667 47.02L49.2167 50.5L44.2667 55.57V55.58Z" stroke="#EE4143" stroke-width="2" stroke-linecap="round" stroke-linejoin="round"/>
<path d="M40.9737 50.0303C40.9737 50.3203 40.9237 50.6203 40.8438 50.9003L40.9737 50.0303Z" stroke="#EE4143" stroke-width="2" stroke-linecap="round" stroke-linejoin="round"/>
<path d="M50.5958 22.6401V28.4601C50.5958 34.7101 46.5758 40.0101 40.9858 41.9101C39.5358 42.4001 37.9958 42.6701 36.3858 42.6701C34.7758 42.6701 33.2358 42.4001 31.7858 41.9101C26.1958 40.0001 22.1758 34.7001 22.1758 28.4601V13.6301C30.9458 17.3301 43.7058 11.8501 43.7058 11.8501C46.5758 14.3001 47.5058 17.6701 47.7758 20.0001C47.8158 20.2901 47.8858 20.5801 47.9958 20.8401C48.4458 21.8501 49.4458 22.5601 50.5858 22.6401H50.5958Z" stroke="#EE4143" stroke-width="2" stroke-linecap="round" stroke-linejoin="round"/>
<path d="M52.197 12.06V22.64H50.817C50.747 22.64 50.667 22.64 50.597 22.63C49.457 22.55 48.457 21.84 48.007 20.83C47.887 20.57 47.817 20.29 47.787 19.99C47.517 17.66 46.587 14.29 43.717 11.84C43.717 11.84 30.957 17.32 22.187 13.62C19.477 12.48 17.167 10.47 15.707 7.16001C15.707 7.16001 21.967 3.81001 28.537 2.22001C35.127 0.630006 41.337 0.0200057 44.977 3.89001L48.047 5.40001C50.587 6.65001 52.197 9.22001 52.197 12.06Z" stroke="#EE4143" stroke-width="2" stroke-linecap="round" stroke-linejoin="round"/>
<path d="M22.1848 19.3198V25.2498H22.1748C20.5448 25.2498 19.2148 23.9198 19.2148 22.2898C19.2148 20.6598 20.5448 19.3298 22.1748 19.3298H22.1848V19.3198Z" stroke="#EE4143" stroke-width="2" stroke-linecap="round" stroke-linejoin="round"/>
<path d="M53.5655 22.2798C53.5655 23.9098 52.2455 25.2398 50.6055 25.2398V22.6298C50.6755 22.6398 50.7555 22.6398 50.8255 22.6398H52.2055V19.7798C53.0255 20.3098 53.5655 21.2298 53.5655 22.2698V22.2798Z" stroke="#EE4143" stroke-width="2" stroke-linecap="round" stroke-linejoin="round"/>
<path d="M28.5039 20.0601H31.1539" stroke="#EE4143" stroke-width="2" stroke-linecap="round" stroke-linejoin="round"/>
<path d="M41.625 20.0601H44.265" stroke="#EE4143" stroke-width="2" stroke-linecap="round" stroke-linejoin="round"/>
<path d="M29.8281 22.6499V24.0899" stroke="#EE4143" stroke-width="2" stroke-linecap="round" stroke-linejoin="round"/>
<path d="M42.9453 22.6499V24.0899" stroke="#EE4143" stroke-width="2" stroke-linecap="round" stroke-linejoin="round"/>
<path d="M40.3536 31.4502C39.4836 32.7002 38.0336 33.5202 36.3936 33.5202C34.7536 33.5202 33.3036 32.7002 32.4336 31.4502" stroke="#EE4143" stroke-width="2" stroke-linecap="round" stroke-linejoin="round"/>
<path d="M40.9852 41.9102V49.8302C40.9852 49.8302 40.9852 49.9202 40.9752 49.9702V50.0302L40.8452 50.9002C40.8452 50.9002 40.8352 50.9402 40.8352 50.9602C40.3452 52.9602 38.5452 54.4302 36.3852 54.4302C35.1152 54.4302 33.9652 53.9102 33.1352 53.0902C32.5552 52.5102 32.1352 51.7802 31.9352 50.9602L31.7952 49.9702C31.7952 49.9702 31.7852 49.8802 31.7852 49.8302V41.9102C33.2352 42.4002 34.7752 42.6702 36.3852 42.6702C37.9952 42.6702 39.5352 42.4002 40.9852 41.9102Z" stroke="#EE4143" stroke-width="2" stroke-linecap="round" stroke-linejoin="round"/>
<path d="M31.8047 49.9697L31.9447 50.9597C31.8547 50.6397 31.8047 50.3097 31.8047 49.9697Z" stroke="#EE4143" stroke-width="2" stroke-linecap="round" stroke-linejoin="round"/>
<path d="M40.9737 50.0303C40.9737 50.3203 40.9237 50.6203 40.8438 50.9003L40.9737 50.0303Z" stroke="#EE4143" stroke-width="2" stroke-linecap="round" stroke-linejoin="round"/>
<path d="M22.9745 62.25H8.39453V69.84H22.9745V62.25Z" stroke="#EE4143" stroke-width="2" stroke-linecap="round" stroke-linejoin="round"/>
<path d="M15.6836 60.0098V64.2098" stroke="#EE4143" stroke-width="2" stroke-linecap="round" stroke-linejoin="round"/>
<path d="M22.1836 18.8698H22.7536C24.2136 18.8698 25.4036 17.6898 25.4036 16.2198V14.5698" stroke="#EE4143" stroke-width="2" stroke-linecap="round" stroke-linejoin="round"/>
</g>
<defs>
<clipPath id="clip0_524_11725">
<rect width="76.61" height="81.32" fill="white" transform="translate(0.695312)"/>
</clipPath>
</defs>
</svg>
