<svg width="56" height="73" viewBox="0 0 56 73" fill="none" xmlns="http://www.w3.org/2000/svg">
<g clip-path="url(#clip0_524_11718)">
<path opacity="0.14" d="M54.4734 8.73988L30.0834 4.51988C29.9734 4.49988 29.8534 4.49988 29.7434 4.51988L5.35344 8.73988C4.87344 8.82988 4.52344 9.23988 4.52344 9.72988V59.2899C4.52344 59.6599 4.72344 59.9999 5.05344 60.1699L28.2034 72.5799C28.3434 72.6499 28.5134 72.6899 28.6734 72.6899C28.8234 72.6899 28.9734 72.6599 29.1134 72.5899L54.7434 60.1899C55.0834 60.0199 55.3034 59.6699 55.3034 59.2899V9.72988C55.3034 9.23988 54.9534 8.82988 54.4734 8.73988Z" fill="#EE4143"/>
<path d="M50.4753 54.79L24.8453 67.19L1.69531 54.79V5.23L26.0853 1L50.4753 5.23V54.79Z" stroke="#EE4143" stroke-width="2" stroke-linecap="round" stroke-linejoin="round"/>
<path d="M7.69531 51.1998V10.2798L26.0853 7.08984L44.4753 10.2798V51.0298L24.9853 60.4598L7.69531 51.1998Z" stroke="#EE4143" stroke-width="2" stroke-linecap="round" stroke-linejoin="round"/>
</g>
<defs>
<clipPath id="clip0_524_11718">
<rect width="54.61" height="72.69" fill="white" transform="translate(0.695312)"/>
</clipPath>
</defs>
</svg>
