<svg width="273" height="62" viewBox="0 0 273 62" fill="none" xmlns="http://www.w3.org/2000/svg">
<path d="M145.581 -5.56965e-06C145.581 19.0581 158.939 21.739 170.928 21.739C180.522 21.739 190.117 20.6667 199.696 19.5943C209.291 18.5219 218.543 17.4495 228.122 17.4495C259.642 17.4495 273 33.5469 273 56.37L273 62L254.153 62L254.153 57.1743C254.153 41.3333 243.191 35.9714 224.701 35.9714C216.817 35.9714 208.606 36.7757 200.38 37.8481C191.813 38.9205 183.602 39.7248 174.349 39.7248C152.424 39.9929 141.461 32.4745 137.355 20.3986L136.671 20.3986C132.908 32.4745 121.261 39.9929 99.3349 39.7248C90.0827 39.7248 81.5296 38.9205 73.3038 37.8481C64.7358 36.7757 56.8669 35.9714 48.6411 35.9714C29.4524 35.9714 18.8466 42.1493 18.8466 57.1743L18.8466 62L0.0148594 62L0.0148596 56.37C0.0148606 34.0947 12.3462 17.4495 46.9453 17.4495C56.1976 17.4495 65.7919 18.5219 75.0293 19.5943C84.2815 20.6667 93.5188 21.739 102.771 21.739C113.392 21.739 128.118 19.0581 128.118 -6.333e-06L145.581 -5.56965e-06Z" fill="#EE4143"/>
</svg>
