<svg width="62" height="331" viewBox="0 0 62 331" fill="none" xmlns="http://www.w3.org/2000/svg">
<path d="M0 154.49C19.0581 154.49 21.739 138.294 21.739 123.758C21.739 112.125 20.6667 100.492 19.5943 88.8775C18.5219 77.2448 17.4495 66.0269 17.4495 54.4122C17.4495 16.1956 33.5469 0 56.37 0H62V22.8506H57.1743C41.3333 22.8506 35.9714 36.1425 35.9714 58.5603C35.9714 68.1189 36.7757 78.0744 37.8481 88.0478C38.9205 98.4361 39.7248 108.392 39.7248 119.609C39.9929 146.193 32.4745 159.485 20.3986 164.463V165.293C32.4745 169.855 39.9929 183.977 39.7248 210.561C39.7248 221.779 38.9205 232.149 37.8481 242.123C36.7757 252.511 35.9714 262.051 35.9714 272.025C35.9714 295.29 42.1493 308.149 57.1743 308.149H62V330.982H56.37C34.0948 330.982 17.4495 316.031 17.4495 274.081C17.4495 262.863 18.5219 251.23 19.5943 240.03C20.6667 228.813 21.739 217.613 21.739 206.395C21.739 193.518 19.0581 175.663 0 175.663V154.49Z" fill="#EE4143"/>
</svg>
