<svg width="66" height="78" viewBox="0 0 66 78" fill="none" xmlns="http://www.w3.org/2000/svg">
<g clip-path="url(#clip0_524_11143)">
<path d="M58.91 1V65.83H47.71L47.77 65.71L54.12 62.43L36.51 54.45L41.67 65.83H1V1H58.91Z" stroke="#EE4143" stroke-width="2" stroke-linecap="round" stroke-linejoin="round"/>
<path d="M49.5206 12.3301H10.3906V17.9001H49.5206V12.3301Z" stroke="#EE4143" stroke-width="2" stroke-linecap="round" stroke-linejoin="round"/>
<path d="M49.5206 21.76H10.3906V27.33H49.5206V21.76Z" stroke="#EE4143" stroke-width="2" stroke-linecap="round" stroke-linejoin="round"/>
<path d="M49.5206 31.1799H10.3906V36.7499H49.5206V31.1799Z" stroke="#EE4143" stroke-width="2" stroke-linecap="round" stroke-linejoin="round"/>
<path d="M42.0272 43.8601H17.8672V49.4301H42.0272V43.8601Z" stroke="#EE4143" stroke-width="2" stroke-linecap="round" stroke-linejoin="round"/>
<path d="M54.1217 62.43L47.7717 65.7099L47.7117 65.83L44.4917 72.0599L41.6717 65.83L36.5117 54.45L54.1217 62.43Z" stroke="#EE4143" stroke-width="2" stroke-linecap="round" stroke-linejoin="round"/>
<path opacity="0.14" d="M64.2108 4.26001H6.30078C5.75078 4.26001 5.30078 4.71001 5.30078 5.26001V70.09C5.30078 70.65 5.75078 71.09 6.30078 71.09H46.3208L48.8808 76.74C49.0408 77.08 49.3808 77.31 49.7608 77.32H49.7908C50.1608 77.32 50.5108 77.11 50.6808 76.78L53.6108 71.09H64.2108C64.7608 71.09 65.2108 70.65 65.2108 70.09V5.26001C65.2108 4.71001 64.7608 4.26001 64.2108 4.26001Z" fill="#EE4143"/>
</g>
<defs>
<clipPath id="clip0_524_11143">
<rect width="65.21" height="77.32" fill="white"/>
</clipPath>
</defs>
</svg>
