<svg width="82" height="77" viewBox="0 0 82 77" fill="none" xmlns="http://www.w3.org/2000/svg">
<g clip-path="url(#clip0_524_11153)">
<path d="M71.07 1H5.6C3.05949 1 1 3.05949 1 5.6V55.54C1 58.0805 3.05949 60.14 5.6 60.14H71.07C73.6105 60.14 75.67 58.0805 75.67 55.54V5.6C75.67 3.05949 73.6105 1 71.07 1Z" stroke="#EE4143" stroke-width="2" stroke-linecap="round" stroke-linejoin="round"/>
<path d="M38.3408 43.86C45.6806 43.86 51.6308 37.9099 51.6308 30.57C51.6308 23.2302 45.6806 17.28 38.3408 17.28C31.0009 17.28 25.0508 23.2302 25.0508 30.57C25.0508 37.9099 31.0009 43.86 38.3408 43.86Z" stroke="#EE4143" stroke-width="2" stroke-linecap="round" stroke-linejoin="round"/>
<path d="M34.3906 35.09V26.05C34.3906 24.83 35.7106 24.07 36.7606 24.67L44.6806 29.19C45.7506 29.8 45.7506 31.34 44.6806 31.95L36.7606 36.47C35.7006 37.07 34.3906 36.31 34.3906 35.09Z" stroke="#EE4143" stroke-width="2" stroke-linecap="round" stroke-linejoin="round"/>
<path d="M6.67969 53.3501H69.9897" stroke="#EE4143" stroke-width="2" stroke-linecap="round" stroke-linejoin="round"/>
<path opacity="0.14" d="M76.5505 3.70996H11.0805C7.98767 3.70996 5.48047 6.21717 5.48047 9.30996V59.25C5.48047 62.3428 7.98767 64.85 11.0805 64.85H76.5505C79.6433 64.85 82.1505 62.3428 82.1505 59.25V9.30996C82.1505 6.21717 79.6433 3.70996 76.5505 3.70996Z" fill="#EE4143"/>
</g>
<defs>
<clipPath id="clip0_524_11153">
<rect width="82" height="77" fill="white"/>
</clipPath>
</defs>
</svg>
